<mxfile host="app.diagrams.net" agent="Mozilla/5.0 (X11; Ubuntu; Linux x86_64; rv:129.0) Gecko/20100101 Firefox/129.0" version="24.7.6">
  <diagram name="Page-1" id="KvnGRzF8rDC2trM1vXdp">
    <mxGraphModel dx="1434" dy="795" grid="1" gridSize="10" guides="1" tooltips="1" connect="1" arrows="1" fold="1" page="1" pageScale="1" pageWidth="850" pageHeight="1100" math="0" shadow="0">
      <root>
        <mxCell id="0" />
        <mxCell id="1" parent="0" />
        <mxCell id="DrKvfDrJEr3UGFmWr-8T-1" value="FrontEnd" style="ellipse;whiteSpace=wrap;html=1;" vertex="1" parent="1">
          <mxGeometry x="290" y="60" width="250" height="150" as="geometry" />
        </mxCell>
        <mxCell id="DrKvfDrJEr3UGFmWr-8T-2" value="POSTGRES" style="shape=cylinder3;whiteSpace=wrap;html=1;boundedLbl=1;backgroundOutline=1;size=15;" vertex="1" parent="1">
          <mxGeometry x="380" y="650" width="110" height="120" as="geometry" />
        </mxCell>
        <mxCell id="DrKvfDrJEr3UGFmWr-8T-3" value="NODE WEBSOCKET" style="whiteSpace=wrap;html=1;aspect=fixed;" vertex="1" parent="1">
          <mxGeometry x="170" y="470" width="80" height="80" as="geometry" />
        </mxCell>
        <mxCell id="DrKvfDrJEr3UGFmWr-8T-4" value="RESTAPI" style="whiteSpace=wrap;html=1;aspect=fixed;" vertex="1" parent="1">
          <mxGeometry x="560" y="470" width="80" height="80" as="geometry" />
        </mxCell>
        <mxCell id="DrKvfDrJEr3UGFmWr-8T-5" value="WEBSOCKET" style="rhombus;whiteSpace=wrap;html=1;" vertex="1" parent="1">
          <mxGeometry x="210" y="300" width="100" height="100" as="geometry" />
        </mxCell>
        <mxCell id="DrKvfDrJEr3UGFmWr-8T-6" value="HTTP" style="rhombus;whiteSpace=wrap;html=1;" vertex="1" parent="1">
          <mxGeometry x="510" y="310" width="80" height="80" as="geometry" />
        </mxCell>
        <mxCell id="DrKvfDrJEr3UGFmWr-8T-13" value="" style="endArrow=classic;html=1;rounded=0;entryX=1;entryY=0;entryDx=0;entryDy=0;exitX=0;exitY=1;exitDx=0;exitDy=0;" edge="1" parent="1" source="DrKvfDrJEr3UGFmWr-8T-1" target="DrKvfDrJEr3UGFmWr-8T-5">
          <mxGeometry relative="1" as="geometry">
            <mxPoint x="260" y="210" as="sourcePoint" />
            <mxPoint x="360" y="210" as="targetPoint" />
          </mxGeometry>
        </mxCell>
        <mxCell id="DrKvfDrJEr3UGFmWr-8T-15" value="" style="endArrow=classic;html=1;rounded=0;entryX=0.5;entryY=0;entryDx=0;entryDy=0;exitX=0;exitY=1;exitDx=0;exitDy=0;" edge="1" parent="1" source="DrKvfDrJEr3UGFmWr-8T-5" target="DrKvfDrJEr3UGFmWr-8T-3">
          <mxGeometry relative="1" as="geometry">
            <mxPoint x="130" y="400" as="sourcePoint" />
            <mxPoint x="230" y="400" as="targetPoint" />
          </mxGeometry>
        </mxCell>
        <mxCell id="DrKvfDrJEr3UGFmWr-8T-19" value="" style="endArrow=classic;html=1;rounded=0;" edge="1" parent="1" source="DrKvfDrJEr3UGFmWr-8T-1" target="DrKvfDrJEr3UGFmWr-8T-6">
          <mxGeometry relative="1" as="geometry">
            <mxPoint x="567" y="200" as="sourcePoint" />
            <mxPoint x="480" y="312" as="targetPoint" />
          </mxGeometry>
        </mxCell>
        <mxCell id="DrKvfDrJEr3UGFmWr-8T-21" value="" style="endArrow=classic;html=1;rounded=0;entryX=0.663;entryY=0.013;entryDx=0;entryDy=0;exitX=1;exitY=1;exitDx=0;exitDy=0;entryPerimeter=0;" edge="1" parent="1" source="DrKvfDrJEr3UGFmWr-8T-6" target="DrKvfDrJEr3UGFmWr-8T-4">
          <mxGeometry relative="1" as="geometry">
            <mxPoint x="667" y="330" as="sourcePoint" />
            <mxPoint x="580" y="442" as="targetPoint" />
          </mxGeometry>
        </mxCell>
        <mxCell id="DrKvfDrJEr3UGFmWr-8T-24" value="REDIS" style="shape=cylinder3;whiteSpace=wrap;html=1;boundedLbl=1;backgroundOutline=1;size=15;" vertex="1" parent="1">
          <mxGeometry x="170" y="670" width="60" height="80" as="geometry" />
        </mxCell>
        <mxCell id="DrKvfDrJEr3UGFmWr-8T-26" value="" style="shape=flexArrow;endArrow=classic;startArrow=classic;html=1;rounded=0;entryX=0;entryY=0.5;entryDx=0;entryDy=0;exitX=1;exitY=0.5;exitDx=0;exitDy=0;" edge="1" parent="1" source="DrKvfDrJEr3UGFmWr-8T-3" target="DrKvfDrJEr3UGFmWr-8T-4">
          <mxGeometry width="100" height="100" relative="1" as="geometry">
            <mxPoint x="400" y="520" as="sourcePoint" />
            <mxPoint x="500" y="420" as="targetPoint" />
          </mxGeometry>
        </mxCell>
        <mxCell id="DrKvfDrJEr3UGFmWr-8T-27" value="" style="shape=flexArrow;endArrow=classic;startArrow=classic;html=1;rounded=0;entryX=0.588;entryY=0.95;entryDx=0;entryDy=0;entryPerimeter=0;" edge="1" parent="1" source="DrKvfDrJEr3UGFmWr-8T-24" target="DrKvfDrJEr3UGFmWr-8T-3">
          <mxGeometry width="100" height="100" relative="1" as="geometry">
            <mxPoint x="130" y="660" as="sourcePoint" />
            <mxPoint x="230" y="560" as="targetPoint" />
          </mxGeometry>
        </mxCell>
        <mxCell id="DrKvfDrJEr3UGFmWr-8T-30" value="" style="shape=flexArrow;endArrow=classic;startArrow=classic;html=1;rounded=0;entryX=0.5;entryY=1;entryDx=0;entryDy=0;" edge="1" parent="1" target="DrKvfDrJEr3UGFmWr-8T-4">
          <mxGeometry width="100" height="100" relative="1" as="geometry">
            <mxPoint x="490" y="700" as="sourcePoint" />
            <mxPoint x="590" y="600" as="targetPoint" />
          </mxGeometry>
        </mxCell>
      </root>
    </mxGraphModel>
  </diagram>
</mxfile>
